<?xml version="1.0" encoding="UTF-8"?>
<svg xmlns="http://www.w3.org/2000/svg" version="1.1" width="300" height="300" viewBox="0 0 300 300"><rect x="0" y="0" width="300" height="300" fill="#ffffff"/><g transform="scale(3.614)"><g transform="translate(1,1)"><path fill-rule="evenodd" d="M8 0L8 4L12 4L12 3L13 3L13 1L12 1L12 0ZM14 0L14 3L15 3L15 4L16 4L16 2L17 2L17 4L19 4L19 3L18 3L18 2L23 2L23 3L20 3L20 5L21 5L21 4L22 4L22 5L23 5L23 4L24 4L24 8L22 8L22 7L23 7L23 6L22 6L22 7L21 7L21 6L20 6L20 7L19 7L19 5L18 5L18 7L17 7L17 5L14 5L14 4L13 4L13 5L11 5L11 6L10 6L10 5L8 5L8 7L9 7L9 6L10 6L10 7L11 7L11 9L10 9L10 8L9 8L9 9L7 9L7 8L4 8L4 9L3 9L3 10L0 10L0 12L2 12L2 11L5 11L5 12L3 12L3 13L5 13L5 15L7 15L7 16L6 16L6 17L5 17L5 16L3 16L3 14L2 14L2 13L0 13L0 24L1 24L1 25L2 25L2 23L4 23L4 22L5 22L5 19L7 19L7 18L6 18L6 17L7 17L7 16L8 16L8 18L9 18L9 17L11 17L11 16L12 16L12 17L13 17L13 16L14 16L14 18L15 18L15 19L14 19L14 20L13 20L13 19L12 19L12 18L10 18L10 19L11 19L11 20L13 20L13 21L9 21L9 20L6 20L6 21L7 21L7 22L6 22L6 23L7 23L7 24L3 24L3 27L0 27L0 30L1 30L1 32L3 32L3 33L2 33L2 34L1 34L1 33L0 33L0 34L1 34L1 35L2 35L2 36L1 36L1 40L2 40L2 39L3 39L3 41L2 41L2 42L4 42L4 44L6 44L6 45L4 45L4 46L5 46L5 47L3 47L3 43L0 43L0 47L1 47L1 48L2 48L2 49L3 49L3 48L4 48L4 50L2 50L2 53L3 53L3 54L2 54L2 55L3 55L3 58L1 58L1 57L0 57L0 58L1 58L1 59L3 59L3 60L4 60L4 57L7 57L7 58L5 58L5 60L6 60L6 61L5 61L5 62L1 62L1 60L0 60L0 62L1 62L1 63L4 63L4 64L2 64L2 65L1 65L1 67L4 67L4 66L2 66L2 65L5 65L5 67L7 67L7 68L5 68L5 70L6 70L6 71L5 71L5 72L6 72L6 73L7 73L7 72L6 72L6 71L7 71L7 70L8 70L8 71L9 71L9 70L11 70L11 68L9 68L9 66L8 66L8 67L7 67L7 66L6 66L6 65L10 65L10 63L8 63L8 62L12 62L12 63L11 63L11 64L13 64L13 67L14 67L14 66L15 66L15 65L16 65L16 67L17 67L17 70L16 70L16 68L14 68L14 69L13 69L13 68L12 68L12 73L13 73L13 74L11 74L11 76L12 76L12 77L10 77L10 78L9 78L9 79L8 79L8 81L10 81L10 80L11 80L11 79L13 79L13 78L14 78L14 77L13 77L13 74L15 74L15 76L16 76L16 77L17 77L17 78L18 78L18 79L15 79L15 80L14 80L14 81L15 81L15 80L18 80L18 79L19 79L19 78L20 78L20 77L21 77L21 76L22 76L22 78L21 78L21 80L22 80L22 78L23 78L23 77L24 77L24 78L25 78L25 80L24 80L24 79L23 79L23 81L28 81L28 80L29 80L29 79L27 79L27 77L30 77L30 79L31 79L31 80L32 80L32 81L33 81L33 80L34 80L34 77L38 77L38 76L39 76L39 77L40 77L40 79L41 79L41 80L42 80L42 79L41 79L41 78L43 78L43 77L44 77L44 78L46 78L46 79L45 79L45 80L44 80L44 79L43 79L43 80L44 80L44 81L46 81L46 79L47 79L47 80L48 80L48 81L50 81L50 80L49 80L49 78L50 78L50 79L51 79L51 78L50 78L50 77L53 77L53 76L54 76L54 77L55 77L55 78L54 78L54 79L55 79L55 80L53 80L53 79L52 79L52 80L53 80L53 81L56 81L56 80L57 80L57 81L58 81L58 78L59 78L59 79L60 79L60 80L61 80L61 79L65 79L65 80L64 80L64 81L65 81L65 80L66 80L66 81L69 81L69 80L70 80L70 81L74 81L74 80L77 80L77 79L79 79L79 78L81 78L81 76L77 76L77 75L80 75L80 74L81 74L81 72L80 72L80 74L79 74L79 72L77 72L77 71L80 71L80 70L81 70L81 69L79 69L79 70L76 70L76 69L78 69L78 67L77 67L77 66L76 66L76 65L78 65L78 66L79 66L79 68L80 68L80 66L81 66L81 65L80 65L80 64L77 64L77 63L80 63L80 62L81 62L81 61L80 61L80 58L81 58L81 55L80 55L80 56L77 56L77 55L78 55L78 54L77 54L77 55L76 55L76 56L77 56L77 57L80 57L80 58L76 58L76 57L75 57L75 56L74 56L74 55L75 55L75 54L76 54L76 53L79 53L79 54L80 54L80 53L81 53L81 51L80 51L80 50L81 50L81 47L80 47L80 46L81 46L81 43L80 43L80 42L81 42L81 39L80 39L80 33L81 33L81 32L79 32L79 36L78 36L78 37L79 37L79 39L80 39L80 42L79 42L79 44L78 44L78 45L77 45L77 46L76 46L76 48L74 48L74 47L75 47L75 45L76 45L76 43L78 43L78 41L79 41L79 40L77 40L77 42L76 42L76 43L75 43L75 42L73 42L73 41L72 41L72 40L71 40L71 39L70 39L70 38L72 38L72 37L74 37L74 39L73 39L73 40L74 40L74 39L75 39L75 38L76 38L76 39L77 39L77 38L76 38L76 36L77 36L77 33L78 33L78 32L77 32L77 31L76 31L76 32L75 32L75 33L72 33L72 32L71 32L71 33L70 33L70 31L74 31L74 29L76 29L76 30L77 30L77 27L78 27L78 26L79 26L79 27L80 27L80 26L81 26L81 25L80 25L80 22L81 22L81 19L80 19L80 16L79 16L79 19L80 19L80 21L79 21L79 25L78 25L78 24L77 24L77 23L78 23L78 22L77 22L77 23L75 23L75 24L74 24L74 22L75 22L75 21L76 21L76 20L77 20L77 19L75 19L75 20L74 20L74 18L75 18L75 17L76 17L76 18L78 18L78 17L76 17L76 16L77 16L77 15L80 15L80 14L81 14L81 13L80 13L80 14L79 14L79 13L78 13L78 12L77 12L77 11L76 11L76 8L75 8L75 11L76 11L76 13L74 13L74 10L73 10L73 6L72 6L72 5L71 5L71 6L70 6L70 4L71 4L71 2L72 2L72 4L73 4L73 1L70 1L70 3L68 3L68 1L67 1L67 0L66 0L66 1L65 1L65 3L64 3L64 0L61 0L61 1L63 1L63 3L59 3L59 4L58 4L58 2L59 2L59 1L60 1L60 0L59 0L59 1L58 1L58 2L57 2L57 1L56 1L56 0L55 0L55 3L56 3L56 4L54 4L54 3L53 3L53 2L52 2L52 3L53 3L53 4L51 4L51 3L50 3L50 0L47 0L47 1L46 1L46 0L44 0L44 1L43 1L43 0L41 0L41 1L43 1L43 2L44 2L44 1L46 1L46 2L47 2L47 3L48 3L48 2L49 2L49 3L50 3L50 4L48 4L48 5L45 5L45 6L44 6L44 7L43 7L43 5L44 5L44 4L46 4L46 3L43 3L43 4L41 4L41 3L42 3L42 2L40 2L40 1L39 1L39 0L38 0L38 1L37 1L37 0L35 0L35 1L34 1L34 0L33 0L33 1L32 1L32 0L24 0L24 1L23 1L23 0L22 0L22 1L20 1L20 0L19 0L19 1L17 1L17 0ZM52 0L52 1L53 1L53 0ZM9 1L9 2L10 2L10 3L12 3L12 1ZM24 1L24 2L25 2L25 3L26 3L26 4L28 4L28 3L29 3L29 4L31 4L31 3L34 3L34 1L33 1L33 2L32 2L32 1L31 1L31 3L29 3L29 2L28 2L28 1L26 1L26 2L25 2L25 1ZM38 1L38 2L37 2L37 3L35 3L35 4L34 4L34 5L37 5L37 8L38 8L38 5L37 5L37 3L38 3L38 4L40 4L40 6L39 6L39 7L40 7L40 9L39 9L39 10L38 10L38 9L37 9L37 11L36 11L36 6L35 6L35 7L34 7L34 6L33 6L33 4L32 4L32 5L30 5L30 6L29 6L29 7L30 7L30 9L31 9L31 10L32 10L32 12L31 12L31 11L28 11L28 10L29 10L29 9L28 9L28 10L27 10L27 11L28 11L28 14L27 14L27 15L26 15L26 16L27 16L27 17L25 17L25 19L24 19L24 20L25 20L25 22L26 22L26 23L27 23L27 22L26 22L26 20L25 20L25 19L29 19L29 17L28 17L28 16L30 16L30 17L31 17L31 18L30 18L30 20L31 20L31 21L32 21L32 22L33 22L33 21L34 21L34 22L36 22L36 23L37 23L37 25L39 25L39 24L40 24L40 26L39 26L39 28L38 28L38 29L35 29L35 28L37 28L37 27L36 27L36 25L35 25L35 23L34 23L34 25L32 25L32 24L33 24L33 23L32 23L32 24L31 24L31 22L30 22L30 21L28 21L28 20L27 20L27 21L28 21L28 24L29 24L29 23L30 23L30 24L31 24L31 25L32 25L32 26L29 26L29 27L30 27L30 29L28 29L28 30L26 30L26 29L25 29L25 30L24 30L24 32L25 32L25 33L26 33L26 32L27 32L27 33L28 33L28 34L29 34L29 36L28 36L28 35L27 35L27 34L26 34L26 35L25 35L25 34L24 34L24 35L23 35L23 36L26 36L26 37L28 37L28 38L27 38L27 39L26 39L26 40L25 40L25 38L24 38L24 40L23 40L23 41L24 41L24 42L26 42L26 43L25 43L25 44L24 44L24 43L23 43L23 42L22 42L22 40L20 40L20 41L21 41L21 42L19 42L19 41L18 41L18 40L19 40L19 39L20 39L20 38L19 38L19 36L17 36L17 37L16 37L16 36L15 36L15 37L14 37L14 35L13 35L13 34L11 34L11 33L10 33L10 32L9 32L9 31L12 31L12 33L14 33L14 34L15 34L15 35L16 35L16 33L15 33L15 32L13 32L13 31L12 31L12 30L13 30L13 29L11 29L11 28L12 28L12 27L13 27L13 28L15 28L15 27L16 27L16 26L17 26L17 27L18 27L18 26L17 26L17 25L20 25L20 27L21 27L21 29L20 29L20 30L19 30L19 28L17 28L17 30L16 30L16 29L14 29L14 30L16 30L16 31L17 31L17 33L18 33L18 35L20 35L20 37L21 37L21 38L22 38L22 39L23 39L23 37L22 37L22 36L21 36L21 34L22 34L22 33L23 33L23 32L20 32L20 31L22 31L22 30L21 30L21 29L24 29L24 27L21 27L21 25L23 25L23 24L21 24L21 25L20 25L20 22L19 22L19 23L18 23L18 24L17 24L17 23L16 23L16 21L17 21L17 22L18 22L18 21L19 21L19 20L20 20L20 21L21 21L21 23L23 23L23 22L22 22L22 20L23 20L23 19L21 19L21 17L22 17L22 16L23 16L23 18L24 18L24 16L23 16L23 15L22 15L22 13L23 13L23 14L24 14L24 15L25 15L25 14L26 14L26 12L25 12L25 11L26 11L26 9L25 9L25 11L24 11L24 9L23 9L23 10L20 10L20 12L19 12L19 9L18 9L18 8L16 8L16 6L15 6L15 8L14 8L14 6L13 6L13 8L14 8L14 9L12 9L12 11L9 11L9 10L8 10L8 11L6 11L6 12L7 12L7 13L6 13L6 14L7 14L7 15L8 15L8 16L11 16L11 14L12 14L12 15L13 15L13 14L14 14L14 15L15 15L15 14L14 14L14 13L15 13L15 12L16 12L16 11L17 11L17 13L16 13L16 19L15 19L15 20L14 20L14 23L13 23L13 22L8 22L8 24L9 24L9 25L10 25L10 27L9 27L9 28L10 28L10 29L9 29L9 31L6 31L6 32L7 32L7 33L3 33L3 34L2 34L2 35L3 35L3 38L4 38L4 39L6 39L6 40L4 40L4 41L5 41L5 43L6 43L6 44L8 44L8 46L7 46L7 45L6 45L6 46L7 46L7 47L6 47L6 48L7 48L7 47L9 47L9 49L10 49L10 50L9 50L9 53L8 53L8 56L7 56L7 55L5 55L5 54L7 54L7 53L5 53L5 54L3 54L3 55L5 55L5 56L7 56L7 57L8 57L8 58L7 58L7 59L6 59L6 60L7 60L7 59L9 59L9 58L11 58L11 59L10 59L10 60L11 60L11 61L12 61L12 60L13 60L13 59L15 59L15 61L16 61L16 58L17 58L17 59L18 59L18 60L17 60L17 61L18 61L18 60L19 60L19 61L20 61L20 62L19 62L19 64L18 64L18 63L16 63L16 65L17 65L17 64L18 64L18 66L17 66L17 67L18 67L18 66L19 66L19 64L20 64L20 65L21 65L21 66L20 66L20 67L21 67L21 68L19 68L19 69L18 69L18 70L17 70L17 72L15 72L15 73L17 73L17 74L16 74L16 75L18 75L18 73L20 73L20 74L19 74L19 76L17 76L17 77L18 77L18 78L19 78L19 76L20 76L20 74L22 74L22 75L23 75L23 74L22 74L22 71L21 71L21 73L20 73L20 72L19 72L19 71L20 71L20 70L22 70L22 68L23 68L23 70L24 70L24 71L25 71L25 72L27 72L27 71L29 71L29 73L31 73L31 74L29 74L29 76L30 76L30 75L31 75L31 74L32 74L32 76L33 76L33 77L34 77L34 76L37 76L37 75L41 75L41 76L40 76L40 77L41 77L41 76L43 76L43 75L44 75L44 71L43 71L43 70L42 70L42 69L41 69L41 70L40 70L40 69L39 69L39 72L38 72L38 71L37 71L37 70L38 70L38 69L37 69L37 70L36 70L36 69L34 69L34 68L33 68L33 70L32 70L32 69L31 69L31 70L30 70L30 69L29 69L29 68L28 68L28 67L29 67L29 66L27 66L27 65L28 65L28 64L30 64L30 63L31 63L31 66L30 66L30 68L31 68L31 66L32 66L32 67L33 67L33 66L32 66L32 63L31 63L31 62L30 62L30 63L22 63L22 64L20 64L20 62L22 62L22 61L24 61L24 60L23 60L23 59L24 59L24 58L22 58L22 56L23 56L23 57L26 57L26 59L25 59L25 61L26 61L26 62L29 62L29 61L30 61L30 60L31 60L31 61L32 61L32 55L31 55L31 54L30 54L30 55L29 55L29 57L26 57L26 56L28 56L28 54L29 54L29 53L27 53L27 54L26 54L26 53L25 53L25 54L26 54L26 56L25 56L25 55L22 55L22 54L21 54L21 55L20 55L20 56L19 56L19 55L18 55L18 52L20 52L20 53L19 53L19 54L20 54L20 53L23 53L23 54L24 54L24 53L23 53L23 52L21 52L21 51L24 51L24 50L23 50L23 49L22 49L22 47L21 47L21 46L22 46L22 45L23 45L23 44L24 44L24 45L25 45L25 46L23 46L23 48L24 48L24 47L25 47L25 48L27 48L27 47L28 47L28 48L29 48L29 49L31 49L31 50L29 50L29 51L30 51L30 53L32 53L32 54L33 54L33 53L34 53L34 55L35 55L35 56L36 56L36 55L37 55L37 58L35 58L35 57L34 57L34 58L33 58L33 61L34 61L34 60L35 60L35 61L36 61L36 60L37 60L37 58L38 58L38 61L37 61L37 62L36 62L36 64L37 64L37 65L36 65L36 66L35 66L35 65L34 65L34 64L33 64L33 65L34 65L34 67L35 67L35 68L37 68L37 67L38 67L38 68L39 68L39 67L40 67L40 66L38 66L38 65L39 65L39 64L40 64L40 65L41 65L41 64L42 64L42 63L44 63L44 64L43 64L43 66L42 66L42 68L43 68L43 66L45 66L45 65L46 65L46 66L48 66L48 67L47 67L47 68L50 68L50 69L46 69L46 70L48 70L48 71L45 71L45 73L46 73L46 74L48 74L48 73L46 73L46 72L50 72L50 71L53 71L53 70L56 70L56 71L57 71L57 70L58 70L58 71L59 71L59 73L57 73L57 74L56 74L56 73L55 73L55 74L56 74L56 75L55 75L55 76L56 76L56 75L59 75L59 74L61 74L61 73L65 73L65 74L63 74L63 75L64 75L64 76L63 76L63 77L62 77L62 78L63 78L63 77L65 77L65 78L66 78L66 76L65 76L65 75L66 75L66 74L67 74L67 76L68 76L68 77L69 77L69 79L71 79L71 78L74 78L74 79L72 79L72 80L74 80L74 79L76 79L76 77L75 77L75 78L74 78L74 77L72 77L72 75L71 75L71 73L70 73L70 72L71 72L71 69L72 69L72 70L74 70L74 71L75 71L75 72L76 72L76 70L74 70L74 67L75 67L75 68L76 68L76 67L75 67L75 65L76 65L76 62L79 62L79 59L77 59L77 60L75 60L75 61L76 61L76 62L74 62L74 63L75 63L75 65L74 65L74 64L73 64L73 63L71 63L71 62L70 62L70 61L72 61L72 62L73 62L73 61L74 61L74 59L76 59L76 58L75 58L75 57L74 57L74 56L72 56L72 59L71 59L71 56L70 56L70 55L71 55L71 54L73 54L73 55L74 55L74 54L75 54L75 53L71 53L71 52L70 52L70 51L72 51L72 50L70 50L70 48L71 48L71 49L72 49L72 48L73 48L73 47L74 47L74 45L73 45L73 42L72 42L72 41L69 41L69 40L68 40L68 38L70 38L70 37L69 37L69 36L68 36L68 38L67 38L67 36L65 36L65 35L64 35L64 36L63 36L63 38L64 38L64 40L63 40L63 39L62 39L62 38L61 38L61 37L62 37L62 36L61 36L61 35L60 35L60 34L61 34L61 33L62 33L62 35L63 35L63 34L64 34L64 33L65 33L65 34L66 34L66 33L65 33L65 31L63 31L63 30L64 30L64 29L65 29L65 30L67 30L67 31L70 31L70 29L72 29L72 28L71 28L71 26L70 26L70 25L72 25L72 23L73 23L73 21L74 21L74 20L73 20L73 18L74 18L74 17L73 17L73 16L76 16L76 15L75 15L75 14L74 14L74 13L69 13L69 14L70 14L70 15L71 15L71 14L72 14L72 15L73 15L73 16L72 16L72 17L71 17L71 16L70 16L70 17L69 17L69 18L70 18L70 21L68 21L68 22L70 22L70 23L71 23L71 24L69 24L69 26L68 26L68 25L65 25L65 24L66 24L66 23L65 23L65 22L67 22L67 21L65 21L65 22L63 22L63 23L64 23L64 24L63 24L63 25L62 25L62 26L63 26L63 25L64 25L64 26L65 26L65 27L63 27L63 29L62 29L62 31L63 31L63 33L62 33L62 32L60 32L60 31L61 31L61 30L60 30L60 31L59 31L59 29L60 29L60 28L59 28L59 27L60 27L60 26L61 26L61 24L62 24L62 22L61 22L61 21L64 21L64 20L65 20L65 19L64 19L64 20L63 20L63 19L62 19L62 18L61 18L61 17L62 17L62 16L63 16L63 17L65 17L65 18L66 18L66 17L67 17L67 19L66 19L66 20L67 20L67 19L68 19L68 20L69 20L69 19L68 19L68 17L67 17L67 16L68 16L68 14L67 14L67 16L66 16L66 15L65 15L65 14L66 14L66 13L67 13L67 11L68 11L68 12L72 12L72 11L73 11L73 10L72 10L72 9L71 9L71 7L72 7L72 6L71 6L71 7L70 7L70 6L69 6L69 7L70 7L70 8L68 8L68 9L69 9L69 11L68 11L68 10L67 10L67 11L66 11L66 12L65 12L65 14L64 14L64 16L63 16L63 15L62 15L62 14L63 14L63 13L64 13L64 11L65 11L65 10L66 10L66 9L67 9L67 7L68 7L68 3L67 3L67 1L66 1L66 3L65 3L65 4L64 4L64 6L63 6L63 4L62 4L62 6L61 6L61 9L60 9L60 5L61 5L61 4L59 4L59 8L58 8L58 6L57 6L57 5L58 5L58 4L57 4L57 5L56 5L56 6L55 6L55 5L54 5L54 4L53 4L53 5L54 5L54 6L53 6L53 14L52 14L52 13L50 13L50 15L51 15L51 14L52 14L52 15L53 15L53 14L56 14L56 15L57 15L57 16L56 16L56 18L55 18L55 17L51 17L51 16L50 16L50 19L53 19L53 22L55 22L55 23L54 23L54 24L53 24L53 23L52 23L52 21L49 21L49 22L48 22L48 21L46 21L46 20L47 20L47 19L49 19L49 18L48 18L48 17L49 17L49 14L48 14L48 12L47 12L47 11L49 11L49 10L48 10L48 6L47 6L47 7L46 7L46 6L45 6L45 7L46 7L46 16L45 16L45 14L44 14L44 12L45 12L45 10L44 10L44 8L43 8L43 7L42 7L42 5L41 5L41 4L40 4L40 3L39 3L39 1ZM25 5L25 8L28 8L28 5ZM49 5L49 8L52 8L52 5ZM65 5L65 6L64 6L64 7L65 7L65 9L66 9L66 7L67 7L67 6L66 6L66 5ZM11 6L11 7L12 7L12 6ZM26 6L26 7L27 7L27 6ZM30 6L30 7L31 7L31 8L32 8L32 10L34 10L34 11L35 11L35 10L34 10L34 8L33 8L33 6L32 6L32 7L31 7L31 6ZM40 6L40 7L41 7L41 6ZM50 6L50 7L51 7L51 6ZM54 6L54 7L55 7L55 6ZM56 6L56 8L55 8L55 9L54 9L54 11L55 11L55 12L54 12L54 13L58 13L58 12L57 12L57 11L58 11L58 10L57 10L57 6ZM62 6L62 9L61 9L61 10L59 10L59 12L61 12L61 14L62 14L62 13L63 13L63 12L62 12L62 11L63 11L63 10L64 10L64 9L63 9L63 6ZM65 6L65 7L66 7L66 6ZM20 7L20 9L22 9L22 8L21 8L21 7ZM0 8L0 9L2 9L2 8ZM15 8L15 9L14 9L14 10L13 10L13 13L12 13L12 12L11 12L11 13L12 13L12 14L13 14L13 13L14 13L14 11L16 11L16 10L17 10L17 9L16 9L16 8ZM41 8L41 11L42 11L42 10L43 10L43 9L42 9L42 8ZM77 8L77 10L79 10L79 12L80 12L80 10L81 10L81 8ZM4 9L4 10L5 10L5 9ZM6 9L6 10L7 10L7 9ZM50 9L50 11L51 11L51 10L52 10L52 9ZM62 9L62 10L63 10L63 9ZM70 9L70 11L71 11L71 9ZM79 9L79 10L80 10L80 9ZM39 10L39 12L38 12L38 11L37 11L37 12L36 12L36 13L35 13L35 12L34 12L34 13L33 13L33 12L32 12L32 13L33 13L33 15L31 15L31 17L33 17L33 18L34 18L34 17L36 17L36 18L35 18L35 19L36 19L36 20L34 20L34 19L32 19L32 18L31 18L31 19L32 19L32 21L33 21L33 20L34 20L34 21L36 21L36 22L37 22L37 23L38 23L38 24L39 24L39 23L38 23L38 22L39 22L39 21L40 21L40 22L41 22L41 21L42 21L42 22L43 22L43 23L44 23L44 25L45 25L45 26L43 26L43 25L42 25L42 28L43 28L43 29L41 29L41 30L40 30L40 29L39 29L39 30L40 30L40 32L39 32L39 31L38 31L38 32L39 32L39 33L38 33L38 34L37 34L37 35L38 35L38 36L39 36L39 35L38 35L38 34L39 34L39 33L40 33L40 34L43 34L43 35L44 35L44 37L41 37L41 38L40 38L40 37L38 37L38 38L40 38L40 40L37 40L37 38L36 38L36 39L35 39L35 38L34 38L34 39L33 39L33 37L34 37L34 36L35 36L35 37L36 37L36 35L34 35L34 33L33 33L33 32L32 32L32 31L31 31L31 29L32 29L32 30L34 30L34 32L35 32L35 34L36 34L36 33L37 33L37 32L36 32L36 30L34 30L34 29L33 29L33 28L34 28L34 27L33 27L33 28L32 28L32 27L31 27L31 29L30 29L30 31L29 31L29 30L28 30L28 33L29 33L29 34L31 34L31 35L32 35L32 37L29 37L29 38L28 38L28 39L27 39L27 40L26 40L26 42L27 42L27 43L26 43L26 46L28 46L28 47L30 47L30 45L29 45L29 46L28 46L28 45L27 45L27 44L28 44L28 43L30 43L30 44L31 44L31 43L33 43L33 42L34 42L34 41L33 41L33 40L34 40L34 39L35 39L35 41L38 41L38 42L35 42L35 43L36 43L36 45L38 45L38 47L37 47L37 46L35 46L35 49L36 49L36 50L35 50L35 51L33 51L33 50L32 50L32 51L33 51L33 52L34 52L34 53L35 53L35 55L36 55L36 53L37 53L37 55L38 55L38 54L40 54L40 55L39 55L39 56L38 56L38 58L39 58L39 59L40 59L40 60L39 60L39 61L38 61L38 62L37 62L37 63L39 63L39 61L40 61L40 60L44 60L44 62L46 62L46 63L49 63L49 64L50 64L50 65L51 65L51 66L52 66L52 64L53 64L53 65L55 65L55 66L53 66L53 69L58 69L58 70L59 70L59 71L60 71L60 72L63 72L63 70L65 70L65 71L64 71L64 72L66 72L66 73L67 73L67 74L68 74L68 72L70 72L70 70L69 70L69 68L70 68L70 67L71 67L71 68L72 68L72 69L73 69L73 67L72 67L72 66L73 66L73 65L71 65L71 64L70 64L70 63L69 63L69 62L68 62L68 61L69 61L69 59L70 59L70 58L69 58L69 57L70 57L70 56L69 56L69 55L70 55L70 54L71 54L71 53L70 53L70 54L69 54L69 55L68 55L68 54L67 54L67 53L69 53L69 51L70 51L70 50L68 50L68 48L70 48L70 47L73 47L73 46L70 46L70 47L69 47L69 46L66 46L66 47L65 47L65 46L64 46L64 47L63 47L63 45L61 45L61 43L63 43L63 44L64 44L64 45L65 45L65 44L64 44L64 43L65 43L65 42L64 42L64 41L63 41L63 40L62 40L62 39L60 39L60 38L59 38L59 39L60 39L60 40L61 40L61 42L60 42L60 43L59 43L59 41L58 41L58 38L57 38L57 39L56 39L56 38L53 38L53 39L54 39L54 41L55 41L55 42L54 42L54 44L55 44L55 45L54 45L54 46L53 46L53 45L52 45L52 44L51 44L51 45L49 45L49 44L50 44L50 43L53 43L53 40L52 40L52 37L54 37L54 35L56 35L56 36L55 36L55 37L57 37L57 36L58 36L58 37L59 37L59 36L58 36L58 34L57 34L57 33L56 33L56 32L59 32L59 31L57 31L57 30L56 30L56 29L57 29L57 27L58 27L58 26L57 26L57 27L56 27L56 26L55 26L55 27L53 27L53 24L52 24L52 23L51 23L51 22L49 22L49 23L47 23L47 22L46 22L46 21L45 21L45 20L46 20L46 19L47 19L47 18L46 18L46 17L45 17L45 16L44 16L44 17L42 17L42 16L41 16L41 18L40 18L40 16L39 16L39 15L41 15L41 14L43 14L43 13L40 13L40 10ZM55 10L55 11L56 11L56 10ZM8 11L8 13L7 13L7 14L10 14L10 12L9 12L9 11ZM23 11L23 13L24 13L24 11ZM18 12L18 13L19 13L19 14L17 14L17 16L18 16L18 17L19 17L19 18L17 18L17 20L18 20L18 19L20 19L20 20L21 20L21 19L20 19L20 15L21 15L21 16L22 16L22 15L21 15L21 13L22 13L22 12L21 12L21 13L19 13L19 12ZM29 12L29 14L28 14L28 15L27 15L27 16L28 16L28 15L30 15L30 14L31 14L31 13L30 13L30 12ZM37 13L37 14L36 14L36 16L37 16L37 15L38 15L38 13ZM76 13L76 14L77 14L77 13ZM1 14L1 19L2 19L2 20L3 20L3 18L4 18L4 19L5 19L5 18L4 18L4 17L2 17L2 14ZM57 14L57 15L58 15L58 14ZM59 14L59 15L60 15L60 16L61 16L61 15L60 15L60 14ZM73 14L73 15L74 15L74 14ZM33 16L33 17L34 17L34 16ZM57 16L57 17L58 17L58 18L56 18L56 19L55 19L55 18L53 18L53 19L55 19L55 20L54 20L54 21L55 21L55 22L57 22L57 21L56 21L56 20L58 20L58 18L59 18L59 17L58 17L58 16ZM27 17L27 18L28 18L28 17ZM44 17L44 19L46 19L46 18L45 18L45 17ZM72 17L72 18L73 18L73 17ZM39 18L39 19L40 19L40 18ZM42 18L42 20L43 20L43 18ZM60 19L60 21L61 21L61 20L62 20L62 19ZM15 20L15 21L16 21L16 20ZM38 20L38 21L37 21L37 22L38 22L38 21L39 21L39 20ZM43 21L43 22L44 22L44 21ZM58 21L58 22L59 22L59 23L56 23L56 24L55 24L55 25L57 25L57 24L61 24L61 23L60 23L60 22L59 22L59 21ZM1 22L1 23L2 23L2 22ZM10 23L10 25L11 25L11 26L13 26L13 25L15 25L15 26L14 26L14 27L15 27L15 26L16 26L16 23L14 23L14 24L13 24L13 23L12 23L12 24L13 24L13 25L11 25L11 23ZM24 23L24 24L25 24L25 23ZM40 23L40 24L42 24L42 23ZM46 23L46 24L45 24L45 25L46 25L46 26L47 26L47 27L48 27L48 25L46 25L46 24L47 24L47 23ZM49 23L49 24L51 24L51 23ZM67 23L67 24L68 24L68 23ZM5 25L5 28L8 28L8 25ZM25 25L25 28L28 28L28 25ZM49 25L49 28L52 28L52 25ZM73 25L73 28L76 28L76 25ZM6 26L6 27L7 27L7 26ZM26 26L26 27L27 27L27 26ZM50 26L50 27L51 27L51 26ZM69 26L69 27L65 27L65 29L67 29L67 30L68 30L68 29L69 29L69 27L70 27L70 26ZM74 26L74 27L75 27L75 26ZM3 27L3 28L1 28L1 30L2 30L2 31L3 31L3 30L2 30L2 29L4 29L4 27ZM43 27L43 28L45 28L45 29L46 29L46 30L48 30L48 31L46 31L46 32L45 32L45 31L44 31L44 32L42 32L42 31L41 31L41 32L40 32L40 33L44 33L44 32L45 32L45 33L46 33L46 39L45 39L45 37L44 37L44 40L42 40L42 38L41 38L41 40L40 40L40 41L39 41L39 42L38 42L38 44L39 44L39 45L40 45L40 46L41 46L41 45L42 45L42 48L40 48L40 49L39 49L39 50L38 50L38 48L39 48L39 47L38 47L38 48L37 48L37 50L36 50L36 51L35 51L35 53L36 53L36 51L37 51L37 53L38 53L38 52L39 52L39 53L43 53L43 54L41 54L41 56L40 56L40 57L39 57L39 58L40 58L40 57L42 57L42 56L43 56L43 58L42 58L42 59L44 59L44 56L45 56L45 57L46 57L46 59L45 59L45 61L46 61L46 62L49 62L49 63L50 63L50 61L51 61L51 63L52 63L52 61L53 61L53 63L54 63L54 64L55 64L55 63L54 63L54 62L56 62L56 61L55 61L55 60L53 60L53 58L54 58L54 57L55 57L55 59L57 59L57 63L58 63L58 65L57 65L57 66L58 66L58 67L57 67L57 68L58 68L58 69L59 69L59 70L60 70L60 71L62 71L62 70L61 70L61 69L65 69L65 70L66 70L66 69L65 69L65 68L67 68L67 67L70 67L70 65L69 65L69 63L68 63L68 62L67 62L67 60L68 60L68 57L67 57L67 56L65 56L65 55L66 55L66 53L67 53L67 52L68 52L68 50L67 50L67 52L66 52L66 53L65 53L65 50L66 50L66 49L67 49L67 48L68 48L68 47L67 47L67 48L65 48L65 47L64 47L64 48L63 48L63 49L64 49L64 52L63 52L63 51L62 51L62 50L61 50L61 51L59 51L59 50L60 50L60 49L62 49L62 48L60 48L60 47L62 47L62 46L61 46L61 45L60 45L60 44L59 44L59 43L58 43L58 41L57 41L57 43L56 43L56 42L55 42L55 43L56 43L56 46L55 46L55 47L53 47L53 50L55 50L55 49L54 49L54 48L56 48L56 49L57 49L57 50L56 50L56 51L55 51L55 52L54 52L54 53L51 53L51 54L49 54L49 55L48 55L48 54L47 54L47 53L48 53L48 52L47 52L47 51L45 51L45 55L44 55L44 56L43 56L43 54L44 54L44 53L43 53L43 52L42 52L42 50L40 50L40 49L44 49L44 50L43 50L43 51L44 51L44 50L45 50L45 49L46 49L46 50L47 50L47 49L48 49L48 47L49 47L49 48L51 48L51 47L50 47L50 46L49 46L49 45L46 45L46 46L48 46L48 47L47 47L47 49L46 49L46 47L45 47L45 45L44 45L44 44L48 44L48 42L49 42L49 43L50 43L50 42L49 42L49 41L50 41L50 40L51 40L51 39L49 39L49 38L48 38L48 37L49 37L49 34L48 34L48 33L50 33L50 34L52 34L52 33L51 33L51 32L50 32L50 30L48 30L48 29L47 29L47 28L46 28L46 27ZM55 27L55 28L56 28L56 27ZM61 27L61 28L62 28L62 27ZM58 28L58 29L59 29L59 28ZM78 28L78 30L79 30L79 31L80 31L80 28ZM6 29L6 30L8 30L8 29ZM10 29L10 30L11 30L11 29ZM43 29L43 30L44 30L44 29ZM53 29L53 30L52 30L52 31L53 31L53 34L54 34L54 33L55 33L55 32L56 32L56 30L55 30L55 31L53 31L53 30L54 30L54 29ZM4 30L4 32L5 32L5 30ZM17 30L17 31L18 31L18 30ZM25 30L25 31L26 31L26 30ZM30 31L30 32L29 32L29 33L31 33L31 34L32 34L32 32L31 32L31 31ZM48 31L48 32L49 32L49 31ZM18 32L18 33L19 33L19 34L21 34L21 33L20 33L20 32ZM46 32L46 33L47 33L47 32ZM68 32L68 33L67 33L67 34L70 34L70 36L71 36L71 37L72 37L72 36L73 36L73 34L72 34L72 33L71 33L71 34L70 34L70 33L69 33L69 32ZM76 32L76 33L75 33L75 34L74 34L74 36L76 36L76 33L77 33L77 32ZM8 33L8 34L3 34L3 35L7 35L7 36L5 36L5 37L4 37L4 38L5 38L5 37L8 37L8 38L6 38L6 39L8 39L8 40L6 40L6 41L8 41L8 43L9 43L9 44L10 44L10 45L9 45L9 46L11 46L11 48L10 48L10 49L11 49L11 48L12 48L12 47L13 47L13 46L12 46L12 44L14 44L14 46L15 46L15 47L16 47L16 48L18 48L18 46L16 46L16 43L17 43L17 42L18 42L18 41L17 41L17 40L16 40L16 41L15 41L15 44L14 44L14 40L15 40L15 39L17 39L17 38L14 38L14 37L13 37L13 39L12 39L12 37L11 37L11 36L13 36L13 35L9 35L9 36L10 36L10 37L11 37L11 38L9 38L9 37L8 37L8 34L10 34L10 33ZM44 34L44 35L45 35L45 34ZM47 34L47 35L48 35L48 34ZM56 34L56 35L57 35L57 34ZM41 35L41 36L42 36L42 35ZM50 35L50 36L51 36L51 37L50 37L50 38L51 38L51 37L52 37L52 36L51 36L51 35ZM47 36L47 37L48 37L48 36ZM64 36L64 37L65 37L65 36ZM29 38L29 40L30 40L30 38ZM47 38L47 39L46 39L46 41L45 41L45 40L44 40L44 41L41 41L41 42L40 42L40 44L41 44L41 43L42 43L42 44L43 44L43 42L44 42L44 43L46 43L46 41L48 41L48 40L47 40L47 39L48 39L48 38ZM66 38L66 39L65 39L65 40L66 40L66 39L67 39L67 38ZM13 39L13 40L12 40L12 41L13 41L13 40L14 40L14 39ZM31 39L31 42L32 42L32 39ZM8 40L8 41L9 41L9 40ZM10 40L10 42L9 42L9 43L10 43L10 44L12 44L12 43L13 43L13 42L11 42L11 40ZM24 40L24 41L25 41L25 40ZM27 40L27 41L28 41L28 40ZM67 40L67 42L66 42L66 45L72 45L72 44L70 44L70 42L69 42L69 43L67 43L67 42L68 42L68 40ZM75 40L75 41L76 41L76 40ZM0 41L0 42L1 42L1 41ZM16 41L16 42L17 42L17 41ZM51 41L51 42L52 42L52 41ZM6 42L6 43L7 43L7 42ZM10 42L10 43L11 43L11 42ZM21 42L21 43L18 43L18 44L17 44L17 45L19 45L19 46L20 46L20 45L19 45L19 44L21 44L21 43L22 43L22 42ZM71 42L71 43L72 43L72 42ZM74 43L74 44L75 44L75 43ZM1 44L1 45L2 45L2 44ZM32 44L32 45L33 45L33 44ZM79 44L79 46L77 46L77 48L79 48L79 50L78 50L78 51L77 51L77 52L79 52L79 53L80 53L80 51L79 51L79 50L80 50L80 47L79 47L79 46L80 46L80 44ZM43 45L43 46L44 46L44 45ZM51 45L51 46L52 46L52 45ZM1 46L1 47L2 47L2 48L3 48L3 47L2 47L2 46ZM59 46L59 47L56 47L56 48L57 48L57 49L58 49L58 48L59 48L59 47L60 47L60 46ZM19 47L19 49L18 49L18 51L19 51L19 50L20 50L20 47ZM31 47L31 48L32 48L32 49L34 49L34 47L33 47L33 48L32 48L32 47ZM44 47L44 49L45 49L45 47ZM64 48L64 49L65 49L65 48ZM5 49L5 52L8 52L8 49ZM12 49L12 50L11 50L11 51L12 51L12 53L13 53L13 54L11 54L11 56L8 56L8 57L11 57L11 56L13 56L13 54L14 54L14 53L15 53L15 54L16 54L16 53L17 53L17 52L16 52L16 50L17 50L17 49L14 49L14 50L15 50L15 52L14 52L14 53L13 53L13 49ZM21 49L21 50L22 50L22 49ZM25 49L25 52L28 52L28 49ZM49 49L49 52L52 52L52 49ZM73 49L73 52L76 52L76 49ZM6 50L6 51L7 51L7 50ZM26 50L26 51L27 51L27 50ZM37 50L37 51L38 51L38 50ZM39 50L39 51L40 51L40 50ZM50 50L50 51L51 51L51 50ZM57 50L57 51L56 51L56 52L55 52L55 55L53 55L53 56L52 56L52 55L50 55L50 56L51 56L51 57L49 57L49 56L47 56L47 55L46 55L46 56L47 56L47 57L49 57L49 58L50 58L50 59L49 59L49 61L50 61L50 60L51 60L51 61L52 61L52 57L53 57L53 56L55 56L55 57L56 57L56 58L57 58L57 57L56 57L56 55L58 55L58 54L56 54L56 52L57 52L57 51L58 51L58 50ZM74 50L74 51L75 51L75 50ZM0 51L0 52L1 52L1 51ZM3 51L3 52L4 52L4 51ZM58 52L58 53L59 53L59 54L62 54L62 56L61 56L61 55L60 55L60 57L58 57L58 59L59 59L59 60L62 60L62 59L63 59L63 58L62 58L62 56L63 56L63 52L62 52L62 53L61 53L61 52L60 52L60 53L59 53L59 52ZM0 54L0 56L1 56L1 54ZM9 54L9 55L10 55L10 54ZM21 55L21 56L22 56L22 55ZM16 56L16 57L17 57L17 58L18 58L18 59L19 59L19 60L20 60L20 59L21 59L21 57L17 57L17 56ZM64 56L64 59L66 59L66 60L67 60L67 58L65 58L65 56ZM14 57L14 58L15 58L15 57ZM29 57L29 58L28 58L28 60L29 60L29 58L31 58L31 57ZM73 57L73 59L72 59L72 61L73 61L73 59L74 59L74 57ZM12 58L12 59L11 59L11 60L12 60L12 59L13 59L13 58ZM60 58L60 59L62 59L62 58ZM26 59L26 60L27 60L27 59ZM46 59L46 61L47 61L47 59ZM8 60L8 61L9 61L9 60ZM21 60L21 61L22 61L22 60ZM77 60L77 61L78 61L78 60ZM6 61L6 62L7 62L7 61ZM13 61L13 62L14 62L14 61ZM41 61L41 62L40 62L40 64L41 64L41 62L43 62L43 61ZM58 61L58 63L59 63L59 64L60 64L60 65L61 65L61 66L62 66L62 67L63 67L63 66L64 66L64 67L67 67L67 66L64 66L64 65L62 65L62 64L64 64L64 62L65 62L65 65L66 65L66 64L67 64L67 65L68 65L68 66L69 66L69 65L68 65L68 63L67 63L67 62L65 62L65 61L61 61L61 63L59 63L59 61ZM62 62L62 63L63 63L63 62ZM6 63L6 64L7 64L7 63ZM13 63L13 64L14 64L14 65L15 65L15 63ZM22 64L22 66L23 66L23 68L24 68L24 67L25 67L25 69L24 69L24 70L25 70L25 71L26 71L26 70L27 70L27 69L28 69L28 70L29 70L29 69L28 69L28 68L27 68L27 69L26 69L26 66L25 66L25 65L27 65L27 64L24 64L24 65L23 65L23 64ZM44 64L44 65L45 65L45 64ZM11 65L11 67L12 67L12 65ZM58 65L58 66L59 66L59 67L58 67L58 68L59 68L59 67L60 67L60 69L61 69L61 67L60 67L60 66L59 66L59 65ZM79 65L79 66L80 66L80 65ZM45 67L45 68L46 68L46 67ZM50 67L50 68L52 68L52 67ZM54 67L54 68L56 68L56 67ZM0 68L0 70L1 70L1 73L4 73L4 72L2 72L2 71L4 71L4 70L2 70L2 69L1 69L1 68ZM3 68L3 69L4 69L4 68ZM7 68L7 69L6 69L6 70L7 70L7 69L8 69L8 70L9 70L9 69L8 69L8 68ZM14 69L14 71L15 71L15 69ZM19 69L19 70L18 70L18 71L19 71L19 70L20 70L20 69ZM44 69L44 70L45 70L45 69ZM51 69L51 70L52 70L52 69ZM67 69L67 71L66 71L66 72L68 72L68 71L69 71L69 70L68 70L68 69ZM31 70L31 71L32 71L32 74L33 74L33 76L34 76L34 73L35 73L35 74L37 74L37 73L38 73L38 74L40 74L40 72L39 72L39 73L38 73L38 72L37 72L37 71L36 71L36 72L35 72L35 71L34 71L34 73L33 73L33 71L32 71L32 70ZM10 71L10 72L8 72L8 74L9 74L9 75L8 75L8 77L9 77L9 75L10 75L10 73L11 73L11 71ZM41 71L41 72L42 72L42 73L41 73L41 75L42 75L42 74L43 74L43 72L42 72L42 71ZM54 71L54 72L53 72L53 74L54 74L54 72L55 72L55 71ZM72 71L72 72L73 72L73 71ZM13 72L13 73L14 73L14 72ZM17 72L17 73L18 73L18 72ZM23 72L23 73L24 73L24 72ZM25 73L25 76L28 76L28 73ZM49 73L49 76L52 76L52 73ZM73 73L73 76L76 76L76 73ZM77 73L77 74L78 74L78 73ZM26 74L26 75L27 75L27 74ZM50 74L50 75L51 75L51 74ZM74 74L74 75L75 75L75 74ZM47 75L47 76L45 76L45 77L46 77L46 78L47 78L47 77L48 77L48 78L49 78L49 77L48 77L48 75ZM68 75L68 76L69 76L69 77L70 77L70 76L71 76L71 75L70 75L70 76L69 76L69 75ZM59 76L59 78L60 78L60 79L61 79L61 78L60 78L60 76ZM31 77L31 79L32 79L32 80L33 80L33 78L32 78L32 77ZM56 77L56 78L55 78L55 79L57 79L57 78L58 78L58 77ZM77 77L77 78L79 78L79 77ZM10 78L10 79L11 79L11 78ZM26 79L26 80L27 80L27 79ZM37 79L37 80L35 80L35 81L40 81L40 80L38 80L38 79ZM67 79L67 80L68 80L68 79ZM19 80L19 81L20 81L20 80ZM62 80L62 81L63 81L63 80ZM78 80L78 81L79 81L79 80ZM80 80L80 81L81 81L81 80ZM0 0L0 7L7 7L7 0ZM1 1L1 6L6 6L6 1ZM2 2L2 5L5 5L5 2ZM74 0L74 7L81 7L81 0ZM75 1L75 6L80 6L80 1ZM76 2L76 5L79 5L79 2ZM0 74L0 81L7 81L7 74ZM1 75L1 80L6 80L6 75ZM2 76L2 79L5 79L5 76Z" fill="#4f46e5"/></g></g></svg>
