<?xml version="1.0" encoding="UTF-8"?>
<svg xmlns="http://www.w3.org/2000/svg" version="1.1" width="300" height="300" viewBox="0 0 300 300"><rect x="0" y="0" width="300" height="300" fill="#ffffff"/><g transform="scale(3.614)"><g transform="translate(1,1)"><path fill-rule="evenodd" d="M8 0L8 4L10 4L10 5L8 5L8 7L9 7L9 8L10 8L10 9L9 9L9 10L6 10L6 9L7 9L7 8L4 8L4 9L2 9L2 8L0 8L0 9L2 9L2 10L3 10L3 11L2 11L2 12L1 12L1 13L0 13L0 15L1 15L1 16L0 16L0 18L1 18L1 19L0 19L0 23L1 23L1 25L0 25L0 27L1 27L1 28L0 28L0 29L1 29L1 30L0 30L0 31L1 31L1 30L2 30L2 32L1 32L1 34L0 34L0 35L1 35L1 37L0 37L0 39L1 39L1 41L0 41L0 42L1 42L1 43L2 43L2 41L3 41L3 43L5 43L5 44L3 44L3 45L4 45L4 49L3 49L3 50L0 50L0 52L1 52L1 53L2 53L2 52L1 52L1 51L3 51L3 50L4 50L4 53L5 53L5 55L4 55L4 54L0 54L0 55L4 55L4 56L5 56L5 57L4 57L4 59L5 59L5 61L7 61L7 60L8 60L8 62L6 62L6 63L5 63L5 62L4 62L4 60L3 60L3 56L2 56L2 60L3 60L3 62L4 62L4 63L5 63L5 64L6 64L6 65L7 65L7 64L8 64L8 65L10 65L10 64L11 64L11 65L12 65L12 66L11 66L11 68L10 68L10 67L9 67L9 68L8 68L8 70L9 70L9 68L10 68L10 69L11 69L11 70L12 70L12 69L11 69L11 68L13 68L13 69L14 69L14 68L15 68L15 67L14 67L14 66L15 66L15 65L14 65L14 64L13 64L13 62L14 62L14 63L16 63L16 64L19 64L19 65L18 65L18 66L16 66L16 69L17 69L17 72L16 72L16 70L15 70L15 71L14 71L14 73L17 73L17 72L18 72L18 69L19 69L19 70L20 70L20 72L24 72L24 74L23 74L23 73L19 73L19 74L20 74L20 76L19 76L19 78L20 78L20 77L21 77L21 74L22 74L22 78L23 78L23 75L24 75L24 77L26 77L26 78L25 78L25 80L24 80L24 79L22 79L22 80L23 80L23 81L25 81L25 80L26 80L26 81L28 81L28 80L30 80L30 79L29 79L29 78L31 78L31 77L32 77L32 78L33 78L33 79L34 79L34 80L35 80L35 81L37 81L37 79L35 79L35 78L37 78L37 77L38 77L38 76L39 76L39 78L40 78L40 79L39 79L39 81L40 81L40 80L43 80L43 79L42 79L42 78L43 78L43 77L44 77L44 78L46 78L46 77L50 77L50 78L51 78L51 77L52 77L52 79L53 79L53 81L57 81L57 79L58 79L58 80L60 80L60 81L61 81L61 78L62 78L62 79L63 79L63 80L64 80L64 81L65 81L65 80L66 80L66 81L69 81L69 79L70 79L70 78L69 78L69 79L68 79L68 77L69 77L69 75L70 75L70 74L69 74L69 73L70 73L70 72L69 72L69 71L70 71L70 70L68 70L68 72L67 72L67 73L66 73L66 75L65 75L65 76L67 76L67 77L66 77L66 79L65 79L65 78L64 78L64 79L63 79L63 78L62 78L62 76L64 76L64 74L65 74L65 73L62 73L62 71L63 71L63 72L64 72L64 70L65 70L65 69L66 69L66 71L65 71L65 72L66 72L66 71L67 71L67 69L71 69L71 75L72 75L72 77L74 77L74 79L75 79L75 80L77 80L77 81L79 81L79 80L77 80L77 79L79 79L79 78L81 78L81 75L80 75L80 74L81 74L81 71L80 71L80 70L81 70L81 68L80 68L80 69L79 69L79 68L78 68L78 69L77 69L77 70L78 70L78 71L79 71L79 72L77 72L77 71L76 71L76 68L77 68L77 67L80 67L80 66L81 66L81 65L80 65L80 64L81 64L81 63L80 63L80 62L81 62L81 60L79 60L79 61L80 61L80 62L78 62L78 60L77 60L77 62L76 62L76 61L75 61L75 60L76 60L76 59L80 59L80 58L81 58L81 55L80 55L80 56L77 56L77 55L79 55L79 54L80 54L80 53L81 53L81 51L80 51L80 50L81 50L81 47L80 47L80 46L79 46L79 47L80 47L80 50L79 50L79 52L78 52L78 54L76 54L76 53L77 53L77 51L78 51L78 49L79 49L79 48L78 48L78 49L77 49L77 48L76 48L76 47L78 47L78 45L81 45L81 43L80 43L80 42L81 42L81 39L80 39L80 38L81 38L81 37L79 37L79 36L78 36L78 37L77 37L77 38L76 38L76 36L77 36L77 35L76 35L76 34L77 34L77 33L78 33L78 31L80 31L80 29L81 29L81 27L80 27L80 26L81 26L81 23L80 23L80 20L79 20L79 21L78 21L78 18L79 18L79 19L80 19L80 18L81 18L81 17L80 17L80 18L79 18L79 16L78 16L78 17L76 17L76 16L77 16L77 15L80 15L80 14L81 14L81 12L80 12L80 14L76 14L76 13L75 13L75 11L76 11L76 12L77 12L77 13L78 13L78 12L77 12L77 10L79 10L79 11L80 11L80 9L81 9L81 8L77 8L77 10L76 10L76 8L75 8L75 11L74 11L74 10L73 10L73 9L72 9L72 10L73 10L73 11L72 11L72 12L71 12L71 13L72 13L72 14L71 14L71 15L70 15L70 14L69 14L69 15L68 15L68 14L65 14L65 15L68 15L68 16L67 16L67 17L66 17L66 16L64 16L64 15L63 15L63 14L64 14L64 13L65 13L65 12L66 12L66 11L67 11L67 13L68 13L68 11L70 11L70 10L71 10L71 9L70 9L70 10L68 10L68 8L71 8L71 6L72 6L72 7L73 7L73 6L72 6L72 5L71 5L71 6L70 6L70 7L69 7L69 5L70 5L70 4L71 4L71 2L72 2L72 4L73 4L73 1L69 1L69 3L68 3L68 2L67 2L67 3L68 3L68 4L66 4L66 5L67 5L67 6L66 6L66 10L65 10L65 12L64 12L64 13L63 13L63 11L62 11L62 9L63 9L63 10L64 10L64 9L63 9L63 6L64 6L64 7L65 7L65 6L64 6L64 5L65 5L65 3L66 3L66 2L65 2L65 3L64 3L64 1L63 1L63 0L61 0L61 1L63 1L63 3L62 3L62 2L60 2L60 3L59 3L59 4L58 4L58 3L57 3L57 2L58 2L58 1L55 1L55 0L54 0L54 1L55 1L55 3L56 3L56 4L54 4L54 3L53 3L53 2L52 2L52 3L53 3L53 4L51 4L51 3L50 3L50 0L49 0L49 2L48 2L48 3L50 3L50 4L48 4L48 10L50 10L50 9L52 9L52 10L51 10L51 12L52 12L52 13L53 13L53 12L54 12L54 11L55 11L55 13L56 13L56 15L55 15L55 14L54 14L54 15L53 15L53 17L55 17L55 18L52 18L52 19L47 19L47 18L46 18L46 17L45 17L45 16L46 16L46 7L47 7L47 5L46 5L46 4L47 4L47 1L46 1L46 0L44 0L44 1L43 1L43 0L41 0L41 1L42 1L42 2L44 2L44 1L46 1L46 3L43 3L43 4L42 4L42 3L41 3L41 2L40 2L40 1L39 1L39 0L38 0L38 1L36 1L36 0L35 0L35 1L36 1L36 3L37 3L37 5L38 5L38 7L39 7L39 4L38 4L38 3L37 3L37 2L38 2L38 1L39 1L39 2L40 2L40 5L41 5L41 6L40 6L40 7L41 7L41 11L40 11L40 10L39 10L39 9L40 9L40 8L38 8L38 9L37 9L37 6L36 6L36 5L34 5L34 4L35 4L35 3L31 3L31 4L30 4L30 3L28 3L28 4L26 4L26 3L27 3L27 2L26 2L26 1L28 1L28 2L34 2L34 0L33 0L33 1L32 1L32 0L24 0L24 1L23 1L23 0L22 0L22 2L24 2L24 3L25 3L25 4L24 4L24 7L23 7L23 6L22 6L22 7L21 7L21 6L20 6L20 7L19 7L19 6L18 6L18 5L17 5L17 4L19 4L19 2L20 2L20 1L21 1L21 0L19 0L19 1L18 1L18 2L17 2L17 0L13 0L13 2L12 2L12 4L13 4L13 6L12 6L12 7L11 7L11 1L10 1L10 2L9 2L9 0ZM52 0L52 1L53 1L53 0ZM59 0L59 1L60 1L60 0ZM66 0L66 1L67 1L67 0ZM15 1L15 2L13 2L13 3L14 3L14 4L15 4L15 5L16 5L16 6L15 6L15 7L16 7L16 8L17 8L17 10L18 10L18 11L14 11L14 12L17 12L17 13L14 13L14 14L19 14L19 13L21 13L21 14L20 14L20 15L21 15L21 16L18 16L18 15L15 15L15 16L14 16L14 18L15 18L15 17L16 17L16 18L19 18L19 19L18 19L18 20L17 20L17 19L16 19L16 20L17 20L17 22L18 22L18 21L20 21L20 19L21 19L21 21L23 21L23 20L22 20L22 19L23 19L23 18L25 18L25 19L24 19L24 20L25 20L25 21L24 21L24 22L26 22L26 23L24 23L24 24L23 24L23 23L22 23L22 24L21 24L21 22L19 22L19 23L18 23L18 24L16 24L16 22L14 22L14 23L13 23L13 28L14 28L14 29L13 29L13 30L11 30L11 28L12 28L12 27L11 27L11 28L10 28L10 27L9 27L9 28L10 28L10 29L8 29L8 30L7 30L7 29L5 29L5 30L7 30L7 31L4 31L4 33L3 33L3 32L2 32L2 33L3 33L3 34L1 34L1 35L2 35L2 36L3 36L3 38L2 38L2 40L3 40L3 41L4 41L4 42L5 42L5 43L6 43L6 44L5 44L5 45L6 45L6 46L7 46L7 47L5 47L5 48L8 48L8 47L9 47L9 48L10 48L10 49L9 49L9 51L10 51L10 52L9 52L9 53L6 53L6 54L7 54L7 55L6 55L6 56L8 56L8 54L9 54L9 56L10 56L10 52L11 52L11 51L10 51L10 50L13 50L13 49L14 49L14 51L15 51L15 52L13 52L13 51L12 51L12 52L13 52L13 53L16 53L16 55L17 55L17 56L16 56L16 57L17 57L17 59L16 59L16 58L15 58L15 59L14 59L14 60L13 60L13 61L14 61L14 60L17 60L17 61L18 61L18 60L20 60L20 61L21 61L21 62L20 62L20 63L19 63L19 62L17 62L17 63L19 63L19 64L20 64L20 65L24 65L24 66L23 66L23 67L24 67L24 68L23 68L23 70L22 70L22 68L21 68L21 67L20 67L20 66L19 66L19 67L17 67L17 69L18 69L18 68L19 68L19 67L20 67L20 69L21 69L21 71L23 71L23 70L24 70L24 71L25 71L25 70L26 70L26 71L27 71L27 72L28 72L28 71L27 71L27 70L29 70L29 73L30 73L30 72L31 72L31 73L32 73L32 71L33 71L33 69L34 69L34 70L35 70L35 68L37 68L37 70L38 70L38 68L39 68L39 67L40 67L40 66L41 66L41 65L43 65L43 66L44 66L44 67L45 67L45 66L44 66L44 63L45 63L45 65L46 65L46 66L48 66L48 67L47 67L47 68L50 68L50 69L46 69L46 70L44 70L44 68L43 68L43 67L42 67L42 68L43 68L43 70L42 70L42 69L41 69L41 70L40 70L40 69L39 69L39 71L40 71L40 73L39 73L39 72L38 72L38 73L37 73L37 74L36 74L36 71L35 71L35 72L34 72L34 74L36 74L36 75L35 75L35 76L34 76L34 75L33 75L33 74L32 74L32 76L34 76L34 78L35 78L35 76L37 76L37 75L38 75L38 73L39 73L39 75L41 75L41 76L40 76L40 77L41 77L41 76L42 76L42 74L41 74L41 73L42 73L42 72L41 72L41 71L43 71L43 75L44 75L44 71L45 71L45 73L46 73L46 74L45 74L45 75L46 75L46 74L48 74L48 73L46 73L46 70L48 70L48 71L47 71L47 72L49 72L49 71L53 71L53 70L55 70L55 71L54 71L54 72L53 72L53 74L54 74L54 72L55 72L55 71L56 71L56 74L55 74L55 76L56 76L56 75L57 75L57 74L58 74L58 76L57 76L57 78L56 78L56 77L55 77L55 79L57 79L57 78L58 78L58 79L60 79L60 78L61 78L61 77L60 77L60 75L62 75L62 74L60 74L60 73L61 73L61 72L59 72L59 70L58 70L58 69L56 69L56 70L55 70L55 69L53 69L53 66L55 66L55 67L54 67L54 68L56 68L56 67L57 67L57 66L58 66L58 67L59 67L59 69L60 69L60 70L61 70L61 71L62 71L62 70L63 70L63 69L64 69L64 68L66 68L66 67L65 67L65 66L67 66L67 68L68 68L68 65L67 65L67 64L68 64L68 63L67 63L67 64L65 64L65 63L66 63L66 60L67 60L67 59L66 59L66 58L67 58L67 57L65 57L65 55L66 55L66 54L67 54L67 52L66 52L66 51L65 51L65 50L67 50L67 51L68 51L68 55L67 55L67 56L68 56L68 55L69 55L69 54L70 54L70 56L69 56L69 58L68 58L68 59L69 59L69 60L68 60L68 61L69 61L69 63L71 63L71 62L73 62L73 63L75 63L75 62L73 62L73 61L74 61L74 59L75 59L75 57L76 57L76 58L79 58L79 57L77 57L77 56L76 56L76 55L74 55L74 54L75 54L75 53L72 53L72 52L71 52L71 53L70 53L70 52L69 52L69 51L72 51L72 50L71 50L71 49L72 49L72 48L73 48L73 47L74 47L74 48L75 48L75 47L76 47L76 46L77 46L77 45L78 45L78 44L80 44L80 43L79 43L79 42L78 42L78 40L79 40L79 41L80 41L80 39L78 39L78 38L77 38L77 39L76 39L76 38L75 38L75 36L76 36L76 35L75 35L75 34L76 34L76 33L77 33L77 32L76 32L76 31L78 31L78 29L80 29L80 27L79 27L79 26L80 26L80 25L79 25L79 26L78 26L78 27L77 27L77 29L76 29L76 30L75 30L75 29L74 29L74 31L73 31L73 30L70 30L70 29L71 29L71 28L72 28L72 27L71 27L71 26L72 26L72 25L70 25L70 23L71 23L71 24L72 24L72 23L73 23L73 22L74 22L74 24L75 24L75 23L77 23L77 25L78 25L78 24L80 24L80 23L77 23L77 22L74 22L74 21L77 21L77 20L76 20L76 19L77 19L77 18L76 18L76 17L75 17L75 18L74 18L74 19L73 19L73 16L76 16L76 15L75 15L75 13L74 13L74 15L72 15L72 16L71 16L71 17L70 17L70 16L68 16L68 17L67 17L67 18L70 18L70 20L69 20L69 19L68 19L68 22L67 22L67 21L66 21L66 20L65 20L65 19L61 19L61 17L62 17L62 14L59 14L59 13L60 13L60 12L58 12L58 11L59 11L59 10L61 10L61 9L62 9L62 6L63 6L63 5L64 5L64 4L62 4L62 3L60 3L60 5L59 5L59 9L58 9L58 8L57 8L57 10L58 10L58 11L57 11L57 12L58 12L58 13L57 13L57 14L58 14L58 15L59 15L59 16L57 16L57 15L56 15L56 16L57 16L57 17L56 17L56 18L55 18L55 19L52 19L52 21L48 21L48 22L47 22L47 21L46 21L46 20L47 20L47 19L46 19L46 18L45 18L45 17L44 17L44 19L43 19L43 18L42 18L42 20L43 20L43 22L42 22L42 21L41 21L41 22L40 22L40 21L39 21L39 23L41 23L41 24L40 24L40 25L39 25L39 28L38 28L38 29L36 29L36 31L35 31L35 32L34 32L34 30L35 30L35 26L36 26L36 28L37 28L37 27L38 27L38 25L34 25L34 27L32 27L32 28L33 28L33 29L34 29L34 30L32 30L32 29L31 29L31 28L29 28L29 29L31 29L31 31L30 31L30 30L29 30L29 31L28 31L28 29L27 29L27 30L26 30L26 29L25 29L25 30L22 30L22 29L24 29L24 28L22 28L22 26L20 26L20 27L18 27L18 26L19 26L19 23L20 23L20 25L24 25L24 24L31 24L31 25L32 25L32 24L31 24L31 23L33 23L33 24L34 24L34 22L35 22L35 21L34 21L34 20L33 20L33 19L37 19L37 22L36 22L36 23L35 23L35 24L38 24L38 23L37 23L37 22L38 22L38 20L39 20L39 19L40 19L40 18L41 18L41 16L42 16L42 17L43 17L43 15L45 15L45 13L44 13L44 10L45 10L45 9L44 9L44 8L43 8L43 7L44 7L44 6L45 6L45 7L46 7L46 5L45 5L45 4L44 4L44 5L43 5L43 7L42 7L42 6L41 6L41 7L42 7L42 8L43 8L43 10L42 10L42 11L43 11L43 12L40 12L40 11L37 11L37 10L36 10L36 11L34 11L34 10L35 10L35 7L36 7L36 6L35 6L35 7L34 7L34 5L33 5L33 4L32 4L32 5L31 5L31 7L30 7L30 5L29 5L29 8L30 8L30 9L31 9L31 10L29 10L29 9L28 9L28 10L27 10L27 9L26 9L26 11L27 11L27 13L26 13L26 12L25 12L25 11L24 11L24 12L25 12L25 13L24 13L24 15L25 15L25 17L24 17L24 16L22 16L22 15L21 15L21 14L22 14L22 13L23 13L23 9L22 9L22 8L20 8L20 10L19 10L19 9L18 9L18 8L19 8L19 7L18 7L18 6L17 6L17 5L16 5L16 4L17 4L17 2L16 2L16 1ZM15 2L15 3L16 3L16 2ZM20 3L20 5L23 5L23 4L22 4L22 3ZM53 4L53 7L54 7L54 6L55 6L55 8L56 8L56 6L57 6L57 7L58 7L58 4L57 4L57 5L54 5L54 4ZM61 4L61 5L60 5L60 9L61 9L61 6L62 6L62 4ZM68 4L68 5L69 5L69 4ZM25 5L25 8L28 8L28 5ZM49 5L49 8L52 8L52 5ZM9 6L9 7L10 7L10 6ZM13 6L13 7L12 7L12 8L11 8L11 9L13 9L13 10L16 10L16 9L14 9L14 6ZM16 6L16 7L17 7L17 6ZM26 6L26 7L27 7L27 6ZM32 6L32 7L31 7L31 8L32 8L32 9L33 9L33 10L34 10L34 7L33 7L33 6ZM50 6L50 7L51 7L51 6ZM67 6L67 7L68 7L68 6ZM4 9L4 10L5 10L5 9ZM21 9L21 10L22 10L22 9ZM24 9L24 10L25 10L25 9ZM53 9L53 10L54 10L54 9ZM9 10L9 11L8 11L8 12L7 12L7 11L5 11L5 12L4 12L4 13L3 13L3 12L2 12L2 13L1 13L1 14L2 14L2 15L3 15L3 14L4 14L4 16L1 16L1 18L2 18L2 21L3 21L3 23L4 23L4 24L3 24L3 25L1 25L1 26L2 26L2 29L4 29L4 28L3 28L3 27L4 27L4 24L5 24L5 23L4 23L4 22L5 22L5 20L8 20L8 19L9 19L9 20L10 20L10 19L9 19L9 18L10 18L10 17L11 17L11 16L10 16L10 15L11 15L11 14L12 14L12 12L13 12L13 11L12 11L12 10ZM28 10L28 11L29 11L29 10ZM31 10L31 11L32 11L32 10ZM55 10L55 11L56 11L56 10ZM67 10L67 11L68 11L68 10ZM9 11L9 12L11 12L11 11ZM18 11L18 12L21 12L21 13L22 13L22 12L21 12L21 11ZM47 11L47 12L48 12L48 14L49 14L49 13L50 13L50 12L49 12L49 11ZM52 11L52 12L53 12L53 11ZM61 11L61 12L62 12L62 11ZM73 11L73 12L74 12L74 11ZM6 12L6 13L4 13L4 14L5 14L5 15L7 15L7 16L5 16L5 17L7 17L7 16L9 16L9 17L10 17L10 16L9 16L9 15L10 15L10 14L9 14L9 13L8 13L8 14L9 14L9 15L7 15L7 14L6 14L6 13L7 13L7 12ZM32 12L32 13L33 13L33 16L32 16L32 17L31 17L31 13L29 13L29 14L28 14L28 13L27 13L27 15L26 15L26 13L25 13L25 15L26 15L26 18L28 18L28 19L26 19L26 22L27 22L27 23L28 23L28 21L30 21L30 22L32 22L32 21L33 21L33 22L34 22L34 21L33 21L33 20L32 20L32 19L31 19L31 20L30 20L30 18L32 18L32 17L35 17L35 18L37 18L37 17L38 17L38 19L39 19L39 17L40 17L40 16L41 16L41 15L42 15L42 14L43 14L43 13L41 13L41 15L40 15L40 14L39 14L39 13L40 13L40 12L39 12L39 13L38 13L38 12L36 12L36 13L35 13L35 12L34 12L34 13L33 13L33 12ZM69 12L69 13L70 13L70 12ZM2 13L2 14L3 14L3 13ZM37 13L37 14L36 14L36 15L34 15L34 16L39 16L39 14L38 14L38 13ZM49 15L49 17L48 17L48 18L49 18L49 17L52 17L52 15ZM54 15L54 16L55 16L55 15ZM60 15L60 17L61 17L61 15ZM16 16L16 17L17 17L17 16ZM28 16L28 18L29 18L29 16ZM63 16L63 18L64 18L64 16ZM2 17L2 18L3 18L3 17ZM12 17L12 18L11 18L11 19L13 19L13 20L11 20L11 22L13 22L13 21L14 21L14 20L15 20L15 19L13 19L13 17ZM19 17L19 18L20 18L20 17ZM22 17L22 18L21 18L21 19L22 19L22 18L23 18L23 17ZM58 17L58 18L57 18L57 19L56 19L56 20L54 20L54 21L55 21L55 22L52 22L52 23L51 23L51 24L48 24L48 25L47 25L47 24L46 24L46 23L47 23L47 22L46 22L46 21L45 21L45 20L46 20L46 19L45 19L45 20L44 20L44 22L43 22L43 23L42 23L42 24L41 24L41 25L40 25L40 26L43 26L43 27L45 27L45 28L43 28L43 29L42 29L42 32L43 32L43 31L44 31L44 33L40 33L40 32L41 32L41 31L40 31L40 29L39 29L39 33L38 33L38 32L35 32L35 34L34 34L34 33L33 33L33 31L32 31L32 33L31 33L31 32L29 32L29 33L30 33L30 35L32 35L32 37L34 37L34 36L35 36L35 37L36 37L36 35L35 35L35 34L36 34L36 33L38 33L38 34L37 34L37 35L38 35L38 36L37 36L37 37L38 37L38 38L39 38L39 37L40 37L40 39L38 39L38 42L39 42L39 43L38 43L38 44L37 44L37 43L36 43L36 42L37 42L37 38L36 38L36 41L35 41L35 43L34 43L34 44L33 44L33 43L32 43L32 45L31 45L31 47L32 47L32 49L30 49L30 51L29 51L29 48L30 48L30 45L28 45L28 43L30 43L30 44L31 44L31 39L30 39L30 40L29 40L29 38L31 38L31 36L30 36L30 37L29 37L29 38L28 38L28 40L26 40L26 39L27 39L27 36L26 36L26 34L27 34L27 35L28 35L28 36L29 36L29 34L28 34L28 33L27 33L27 32L26 32L26 33L25 33L25 31L24 31L24 33L22 33L22 34L21 34L21 36L22 36L22 37L23 37L23 40L22 40L22 38L21 38L21 37L20 37L20 32L22 32L22 30L21 30L21 31L20 31L20 32L19 32L19 31L18 31L18 33L19 33L19 34L16 34L16 36L15 36L15 37L16 37L16 39L17 39L17 40L18 40L18 39L19 39L19 38L20 38L20 40L19 40L19 41L17 41L17 42L16 42L16 40L15 40L15 38L14 38L14 39L11 39L11 37L12 37L12 36L13 36L13 35L15 35L15 34L13 34L13 33L14 33L14 32L15 32L15 33L16 33L16 30L17 30L17 29L16 29L16 28L17 28L17 26L18 26L18 25L16 25L16 27L15 27L15 24L14 24L14 27L15 27L15 29L14 29L14 30L13 30L13 31L14 31L14 32L10 32L10 31L11 31L11 30L8 30L8 31L7 31L7 32L6 32L6 33L5 33L5 34L4 34L4 37L5 37L5 36L6 36L6 37L7 37L7 38L6 38L6 39L4 39L4 38L3 38L3 40L4 40L4 41L5 41L5 40L6 40L6 41L7 41L7 42L6 42L6 43L8 43L8 45L7 45L7 44L6 44L6 45L7 45L7 46L9 46L9 44L11 44L11 43L12 43L12 40L13 40L13 42L14 42L14 41L15 41L15 43L14 43L14 44L13 44L13 45L11 45L11 46L10 46L10 48L11 48L11 49L12 49L12 47L14 47L14 46L17 46L17 47L16 47L16 48L15 48L15 50L16 50L16 51L17 51L17 49L16 49L16 48L18 48L18 46L17 46L17 45L19 45L19 46L20 46L20 48L19 48L19 49L18 49L18 53L20 53L20 54L18 54L18 55L19 55L19 56L17 56L17 57L18 57L18 58L19 58L19 59L20 59L20 60L21 60L21 61L22 61L22 64L25 64L25 66L24 66L24 67L26 67L26 66L29 66L29 67L27 67L27 68L25 68L25 69L24 69L24 70L25 70L25 69L28 69L28 68L29 68L29 69L30 69L30 70L31 70L31 71L32 71L32 69L33 69L33 68L32 68L32 69L31 69L31 68L30 68L30 66L31 66L31 67L34 67L34 65L33 65L33 63L34 63L34 64L35 64L35 66L36 66L36 67L39 67L39 66L40 66L40 64L43 64L43 63L40 63L40 62L39 62L39 61L40 61L40 60L41 60L41 59L42 59L42 58L43 58L43 60L44 60L44 61L41 61L41 62L46 62L46 63L49 63L49 64L50 64L50 65L51 65L51 66L52 66L52 64L53 64L53 65L55 65L55 66L56 66L56 63L57 63L57 62L54 62L54 63L53 63L53 61L52 61L52 58L51 58L51 57L52 57L52 54L53 54L53 53L54 53L54 55L53 55L53 56L54 56L54 55L55 55L55 57L56 57L56 58L57 58L57 59L56 59L56 60L55 60L55 58L53 58L53 60L55 60L55 61L57 61L57 59L58 59L58 60L61 60L61 62L60 62L60 61L58 61L58 63L59 63L59 64L61 64L61 65L60 65L60 66L61 66L61 67L60 67L60 69L61 69L61 70L62 70L62 68L63 68L63 66L64 66L64 65L63 65L63 64L62 64L62 63L65 63L65 60L66 60L66 59L65 59L65 60L64 60L64 58L65 58L65 57L62 57L62 55L63 55L63 56L64 56L64 54L65 54L65 53L63 53L63 52L64 52L64 50L65 50L65 49L70 49L70 47L68 47L68 48L67 48L67 46L68 46L68 44L69 44L69 45L70 45L70 46L71 46L71 47L73 47L73 46L72 46L72 45L74 45L74 47L75 47L75 45L76 45L76 43L77 43L77 41L76 41L76 43L75 43L75 42L74 42L74 43L73 43L73 40L71 40L71 39L68 39L68 36L70 36L70 37L71 37L71 38L74 38L74 37L73 37L73 36L71 36L71 35L72 35L72 34L73 34L73 32L72 32L72 33L71 33L71 32L70 32L70 31L67 31L67 29L68 29L68 30L69 30L69 29L70 29L70 28L71 28L71 27L69 27L69 26L68 26L68 24L69 24L69 23L67 23L67 22L65 22L65 21L60 21L60 23L59 23L59 21L58 21L58 23L56 23L56 21L57 21L57 19L58 19L58 18L59 18L59 17ZM65 17L65 18L66 18L66 17ZM4 18L4 19L3 19L3 20L4 20L4 19L8 19L8 18ZM71 18L71 20L73 20L73 21L74 21L74 20L73 20L73 19L72 19L72 18ZM75 18L75 19L76 19L76 18ZM59 19L59 20L61 20L61 19ZM31 20L31 21L32 21L32 20ZM6 21L6 22L7 22L7 23L6 23L6 24L8 24L8 22L9 22L9 21ZM1 22L1 23L2 23L2 22ZM45 22L45 23L46 23L46 22ZM49 22L49 23L50 23L50 22ZM63 22L63 25L62 25L62 26L63 26L63 27L61 27L61 28L63 28L63 29L62 29L62 30L63 30L63 29L64 29L64 31L63 31L63 33L62 33L62 34L64 34L64 32L65 32L65 35L62 35L62 36L63 36L63 37L64 37L64 36L65 36L65 38L64 38L64 39L63 39L63 40L62 40L62 42L63 42L63 43L64 43L64 44L63 44L63 45L62 45L62 46L61 46L61 45L60 45L60 43L59 43L59 42L61 42L61 40L60 40L60 39L62 39L62 38L61 38L61 36L60 36L60 35L59 35L59 34L61 34L61 33L60 33L60 31L61 31L61 32L62 32L62 31L61 31L61 30L59 30L59 29L60 29L60 28L58 28L58 27L60 27L60 26L59 26L59 25L60 25L60 24L59 24L59 23L58 23L58 25L57 25L57 24L56 24L56 23L54 23L54 24L53 24L53 23L52 23L52 24L53 24L53 27L55 27L55 28L56 28L56 27L57 27L57 29L56 29L56 30L55 30L55 29L54 29L54 28L53 28L53 30L52 30L52 31L53 31L53 32L54 32L54 31L53 31L53 30L55 30L55 32L56 32L56 33L57 33L57 34L56 34L56 35L55 35L55 36L56 36L56 35L57 35L57 34L58 34L58 36L57 36L57 37L52 37L52 36L51 36L51 35L50 35L50 36L51 36L51 37L50 37L50 38L51 38L51 37L52 37L52 40L53 40L53 42L52 42L52 41L51 41L51 39L50 39L50 41L51 41L51 42L50 42L50 43L49 43L49 44L50 44L50 45L51 45L51 46L52 46L52 45L53 45L53 46L54 46L54 45L55 45L55 47L50 47L50 46L49 46L49 45L47 45L47 44L48 44L48 42L49 42L49 38L48 38L48 37L49 37L49 34L48 34L48 33L50 33L50 34L52 34L52 33L51 33L51 32L50 32L50 30L49 30L49 29L47 29L47 27L48 27L48 26L47 26L47 25L46 25L46 26L45 26L45 25L44 25L44 23L43 23L43 26L45 26L45 27L46 27L46 30L48 30L48 31L49 31L49 32L48 32L48 33L47 33L47 31L45 31L45 32L46 32L46 34L47 34L47 35L46 35L46 39L45 39L45 38L44 38L44 39L43 39L43 41L44 41L44 42L45 42L45 41L46 41L46 43L43 43L43 44L42 44L42 42L41 42L41 44L40 44L40 43L39 43L39 44L38 44L38 45L36 45L36 43L35 43L35 44L34 44L34 47L33 47L33 48L35 48L35 47L36 47L36 48L37 48L37 47L39 47L39 46L38 46L38 45L40 45L40 46L41 46L41 45L42 45L42 47L41 47L41 48L40 48L40 49L39 49L39 50L38 50L38 49L37 49L37 53L38 53L38 52L40 52L40 54L38 54L38 56L40 56L40 57L42 57L42 56L40 56L40 54L41 54L41 53L43 53L43 54L42 54L42 55L43 55L43 57L44 57L44 58L45 58L45 59L44 59L44 60L45 60L45 61L46 61L46 62L48 62L48 61L46 61L46 59L48 59L48 60L49 60L49 59L50 59L50 58L49 58L49 57L51 57L51 55L50 55L50 53L48 53L48 51L47 51L47 49L46 49L46 50L45 50L45 49L44 49L44 47L47 47L47 48L48 48L48 47L50 47L50 48L53 48L53 50L55 50L55 52L54 52L54 53L55 53L55 52L56 52L56 54L57 54L57 55L56 55L56 57L57 57L57 58L58 58L58 59L59 59L59 57L60 57L60 59L61 59L61 60L62 60L62 58L61 58L61 57L60 57L60 56L59 56L59 55L62 55L62 54L63 54L63 53L62 53L62 54L61 54L61 52L60 52L60 51L59 51L59 50L61 50L61 49L63 49L63 50L64 50L64 48L65 48L65 47L66 47L66 46L67 46L67 45L66 45L66 44L68 44L68 43L64 43L64 42L66 42L66 41L67 41L67 40L68 40L68 39L67 39L67 38L66 38L66 37L67 37L67 36L66 36L66 35L67 35L67 31L66 31L66 29L67 29L67 28L68 28L68 27L67 27L67 26L66 26L66 25L65 25L65 22ZM71 22L71 23L72 23L72 22ZM9 23L9 25L10 25L10 24L11 24L11 25L12 25L12 23ZM61 23L61 24L62 24L62 23ZM55 24L55 26L56 26L56 24ZM5 25L5 28L8 28L8 25ZM25 25L25 28L28 28L28 25ZM29 25L29 27L30 27L30 25ZM49 25L49 28L52 28L52 25ZM73 25L73 28L76 28L76 25ZM6 26L6 27L7 27L7 26ZM26 26L26 27L27 27L27 26ZM50 26L50 27L51 27L51 26ZM64 26L64 27L65 27L65 28L67 28L67 27L65 27L65 26ZM74 26L74 27L75 27L75 26ZM20 27L20 28L18 28L18 29L19 29L19 30L20 30L20 29L21 29L21 27ZM15 29L15 30L14 30L14 31L15 31L15 30L16 30L16 29ZM43 29L43 30L44 30L44 29ZM56 30L56 32L57 32L57 33L58 33L58 34L59 34L59 31L57 31L57 30ZM8 32L8 33L9 33L9 32ZM68 32L68 35L71 35L71 33L70 33L70 32ZM75 32L75 33L76 33L76 32ZM79 32L79 33L80 33L80 34L79 34L79 35L80 35L80 36L81 36L81 35L80 35L80 34L81 34L81 32ZM6 33L6 34L5 34L5 35L6 35L6 36L7 36L7 37L8 37L8 38L7 38L7 39L6 39L6 40L9 40L9 37L8 37L8 36L7 36L7 35L10 35L10 37L11 37L11 36L12 36L12 34L11 34L11 33L10 33L10 34L7 34L7 33ZM39 33L39 34L38 34L38 35L39 35L39 34L40 34L40 37L41 37L41 36L42 36L42 35L44 35L44 36L43 36L43 37L44 37L44 36L45 36L45 35L44 35L44 34L45 34L45 33L44 33L44 34L42 34L42 35L41 35L41 34L40 34L40 33ZM53 33L53 35L54 35L54 33ZM6 34L6 35L7 35L7 34ZM23 34L23 37L24 37L24 36L25 36L25 35L24 35L24 34ZM32 34L32 35L34 35L34 34ZM47 35L47 37L48 37L48 35ZM16 36L16 37L18 37L18 38L17 38L17 39L18 39L18 38L19 38L19 36ZM58 36L58 37L59 37L59 36ZM25 37L25 38L24 38L24 39L25 39L25 38L26 38L26 37ZM34 38L34 39L33 39L33 40L32 40L32 42L34 42L34 39L35 39L35 38ZM41 38L41 40L40 40L40 41L41 41L41 40L42 40L42 38ZM47 38L47 39L46 39L46 41L48 41L48 40L47 40L47 39L48 39L48 38ZM53 38L53 39L55 39L55 38ZM56 38L56 40L54 40L54 41L55 41L55 42L54 42L54 44L55 44L55 45L56 45L56 44L57 44L57 43L58 43L58 42L57 42L57 43L55 43L55 42L56 42L56 41L57 41L57 40L58 40L58 41L59 41L59 40L58 40L58 38ZM10 39L10 42L9 42L9 41L8 41L8 42L9 42L9 43L10 43L10 42L11 42L11 39ZM64 39L64 41L63 41L63 42L64 42L64 41L66 41L66 40L67 40L67 39ZM20 40L20 42L19 42L19 45L20 45L20 46L21 46L21 45L22 45L22 47L21 47L21 48L20 48L20 49L21 49L21 50L22 50L22 47L23 47L23 48L24 48L24 47L25 47L25 48L28 48L28 45L27 45L27 43L28 43L28 42L26 42L26 41L24 41L24 40L23 40L23 41L24 41L24 42L26 42L26 45L27 45L27 47L25 47L25 46L23 46L23 45L25 45L25 44L24 44L24 43L23 43L23 45L22 45L22 43L21 43L21 41L22 41L22 40ZM28 40L28 41L29 41L29 40ZM44 40L44 41L45 41L45 40ZM69 41L69 42L70 42L70 43L69 43L69 44L70 44L70 45L71 45L71 44L70 44L70 43L72 43L72 44L73 44L73 43L72 43L72 42L70 42L70 41ZM17 42L17 44L18 44L18 42ZM51 42L51 43L50 43L50 44L51 44L51 45L52 45L52 44L53 44L53 43L52 43L52 42ZM15 43L15 44L16 44L16 43ZM46 43L46 44L47 44L47 43ZM51 43L51 44L52 44L52 43ZM74 43L74 44L75 44L75 43ZM1 44L1 46L2 46L2 44ZM44 44L44 45L45 45L45 44ZM32 45L32 46L33 46L33 45ZM58 45L58 46L56 46L56 48L54 48L54 49L55 49L55 50L56 50L56 49L58 49L58 50L59 50L59 49L58 49L58 46L59 46L59 47L60 47L60 49L61 49L61 48L62 48L62 47L63 47L63 46L64 46L64 47L65 47L65 46L64 46L64 45L63 45L63 46L62 46L62 47L61 47L61 46L59 46L59 45ZM11 46L11 47L12 47L12 46ZM43 46L43 47L44 47L44 46ZM47 46L47 47L48 47L48 46ZM0 47L0 49L1 49L1 47ZM41 48L41 50L42 50L42 51L43 51L43 53L44 53L44 54L43 54L43 55L44 55L44 57L46 57L46 55L45 55L45 53L47 53L47 52L46 52L46 51L45 51L45 50L44 50L44 49L43 49L43 48ZM5 49L5 52L8 52L8 49ZM25 49L25 52L28 52L28 49ZM32 49L32 50L31 50L31 51L30 51L30 53L32 53L32 54L33 54L33 55L32 55L32 56L31 56L31 55L30 55L30 56L29 56L29 57L28 57L28 55L27 55L27 54L26 54L26 53L24 53L24 55L22 55L22 54L21 54L21 55L20 55L20 56L19 56L19 57L24 57L24 58L25 58L25 59L27 59L27 60L25 60L25 61L24 61L24 60L23 60L23 58L20 58L20 59L21 59L21 60L22 60L22 61L23 61L23 62L24 62L24 63L25 63L25 64L27 64L27 65L28 65L28 64L29 64L29 65L31 65L31 66L32 66L32 65L31 65L31 64L29 64L29 63L32 63L32 62L33 62L33 61L34 61L34 60L35 60L35 61L36 61L36 60L38 60L38 61L37 61L37 62L36 62L36 63L35 63L35 64L37 64L37 62L38 62L38 63L39 63L39 64L38 64L38 65L39 65L39 64L40 64L40 63L39 63L39 62L38 62L38 61L39 61L39 59L40 59L40 58L39 58L39 59L35 59L35 56L36 56L36 55L37 55L37 54L36 54L36 55L34 55L34 54L35 54L35 53L36 53L36 51L35 51L35 49ZM49 49L49 52L52 52L52 49ZM73 49L73 52L76 52L76 49ZM6 50L6 51L7 51L7 50ZM26 50L26 51L27 51L27 50ZM32 50L32 51L33 51L33 54L34 54L34 52L35 52L35 51L33 51L33 50ZM43 50L43 51L44 51L44 50ZM50 50L50 51L51 51L51 50ZM68 50L68 51L69 51L69 50ZM74 50L74 51L75 51L75 50ZM19 51L19 52L20 52L20 53L23 53L23 51ZM40 51L40 52L41 52L41 51ZM56 51L56 52L57 52L57 53L58 53L58 55L57 55L57 56L58 56L58 57L59 57L59 56L58 56L58 55L59 55L59 54L60 54L60 53L59 53L59 51L58 51L58 52L57 52L57 51ZM62 51L62 52L63 52L63 51ZM16 52L16 53L17 53L17 52ZM79 52L79 53L80 53L80 52ZM28 53L28 54L29 54L29 53ZM11 54L11 57L12 57L12 56L13 56L13 55L12 55L12 54ZM25 54L25 55L24 55L24 56L25 56L25 57L26 57L26 58L28 58L28 62L26 62L26 61L25 61L25 63L29 63L29 62L32 62L32 61L33 61L33 57L34 57L34 55L33 55L33 56L32 56L32 58L31 58L31 57L29 57L29 58L28 58L28 57L26 57L26 54ZM48 54L48 55L47 55L47 57L49 57L49 56L50 56L50 55L49 55L49 54ZM71 54L71 56L70 56L70 57L71 57L71 59L70 59L70 61L71 61L71 60L73 60L73 59L74 59L74 57L75 57L75 56L74 56L74 55L73 55L73 54ZM48 55L48 56L49 56L49 55ZM0 56L0 59L1 59L1 56ZM71 56L71 57L74 57L74 56ZM6 57L6 58L8 58L8 59L9 59L9 62L8 62L8 64L10 64L10 63L11 63L11 62L12 62L12 61L11 61L11 58L8 58L8 57ZM13 57L13 58L14 58L14 57ZM36 57L36 58L37 58L37 57ZM29 58L29 59L31 59L31 58ZM48 58L48 59L49 59L49 58ZM72 58L72 59L73 59L73 58ZM6 59L6 60L7 60L7 59ZM17 59L17 60L18 60L18 59ZM29 60L29 61L30 61L30 60ZM31 60L31 61L32 61L32 60ZM50 60L50 61L49 61L49 63L50 63L50 61L51 61L51 63L52 63L52 61L51 61L51 60ZM63 60L63 61L62 61L62 62L64 62L64 60ZM10 61L10 62L11 62L11 61ZM15 61L15 62L16 62L16 61ZM0 62L0 64L1 64L1 66L0 66L0 70L1 70L1 73L4 73L4 72L2 72L2 71L4 71L4 70L5 70L5 68L6 68L6 69L7 69L7 68L6 68L6 67L7 67L7 66L5 66L5 65L4 65L4 64L1 64L1 63L2 63L2 62ZM6 63L6 64L7 64L7 63ZM20 63L20 64L21 64L21 63ZM54 63L54 64L55 64L55 63ZM76 63L76 64L75 64L75 65L76 65L76 66L74 66L74 67L73 67L73 66L72 66L72 67L71 67L71 65L69 65L69 66L70 66L70 68L71 68L71 69L72 69L72 70L73 70L73 69L74 69L74 67L75 67L75 68L76 68L76 67L77 67L77 65L76 65L76 64L80 64L80 63ZM72 64L72 65L74 65L74 64ZM2 65L2 66L3 66L3 67L1 67L1 69L2 69L2 68L5 68L5 67L4 67L4 65ZM13 65L13 66L12 66L12 67L13 67L13 66L14 66L14 65ZM79 65L79 66L80 66L80 65ZM50 67L50 68L52 68L52 67ZM72 68L72 69L73 69L73 68ZM50 69L50 70L52 70L52 69ZM78 69L78 70L79 70L79 69ZM6 70L6 71L5 71L5 72L6 72L6 73L7 73L7 72L9 72L9 73L8 73L8 74L10 74L10 78L9 78L9 79L8 79L8 81L10 81L10 80L11 80L11 81L12 81L12 79L13 79L13 80L15 80L15 81L16 81L16 80L17 80L17 81L18 81L18 80L19 80L19 81L20 81L20 80L21 80L21 79L20 79L20 80L19 80L19 79L16 79L16 78L15 78L15 77L16 77L16 76L18 76L18 75L16 75L16 74L15 74L15 77L14 77L14 74L13 74L13 73L12 73L12 72L11 72L11 73L12 73L12 74L13 74L13 75L12 75L12 76L13 76L13 77L14 77L14 79L13 79L13 78L12 78L12 77L11 77L11 74L10 74L10 72L9 72L9 71L7 71L7 70ZM56 70L56 71L58 71L58 70ZM74 70L74 71L72 71L72 72L74 72L74 71L75 71L75 72L76 72L76 71L75 71L75 70ZM6 71L6 72L7 72L7 71ZM58 72L58 74L59 74L59 72ZM79 72L79 74L80 74L80 72ZM25 73L25 76L28 76L28 73ZM49 73L49 76L52 76L52 73ZM67 73L67 76L68 76L68 75L69 75L69 74L68 74L68 73ZM73 73L73 76L76 76L76 73ZM26 74L26 75L27 75L27 74ZM29 74L29 77L30 77L30 76L31 76L31 75L30 75L30 74ZM50 74L50 75L51 75L51 74ZM74 74L74 75L75 75L75 74ZM8 75L8 77L9 77L9 75ZM47 75L47 76L48 76L48 75ZM53 75L53 79L54 79L54 75ZM77 75L77 76L79 76L79 77L77 77L77 78L79 78L79 77L80 77L80 76L79 76L79 75ZM17 77L17 78L18 78L18 77ZM75 77L75 79L76 79L76 77ZM10 78L10 79L11 79L11 78ZM26 78L26 80L28 80L28 78ZM47 78L47 79L45 79L45 80L44 80L44 81L46 81L46 80L49 80L49 81L50 81L50 80L49 80L49 78ZM71 78L71 80L70 80L70 81L73 81L73 78ZM15 79L15 80L16 80L16 79ZM64 79L64 80L65 80L65 79ZM32 80L32 81L33 81L33 80ZM80 80L80 81L81 81L81 80ZM0 0L0 7L7 7L7 0ZM1 1L1 6L6 6L6 1ZM2 2L2 5L5 5L5 2ZM74 0L74 7L81 7L81 0ZM75 1L75 6L80 6L80 1ZM76 2L76 5L79 5L79 2ZM0 74L0 81L7 81L7 74ZM1 75L1 80L6 80L6 75ZM2 76L2 79L5 79L5 76Z" fill="#4f46e5"/></g></g></svg>
